<svg xmlns="http://www.w3.org/2000/svg" width="760" height="242" viewBox="0 0 760 242" font-family="-apple-system, BlinkMacSystemFont, 'Segoe UI', Helvetica, Arial, sans-serif" role="img" aria-label="What it refused to remove: 24 worktrees, 5.8 GB">
<title>What it refused to remove: 24 worktrees, 5.8 GB</title>
<text x="0" y="24" font-size="17" font-weight="600" fill="#f0f6fc">What it refused to remove: 24 worktrees, 5.8 GB</text>
<text x="0" y="46" font-size="13" fill="#8b8a83">Same scan. A clean git status is not enough; these would have lost work.</text>
<line x1="300" y1="66" x2="300" y2="230" stroke="#30363d" stroke-width="1"/>
<text x="288" y="90.0" font-size="13.5" text-anchor="end" fill="#c3c2b7">Commits that exist only in that worktree</text>
<path d="M300,74 h356.0 a4,4 0 0 1 4,4 v14 a4,4 0 0 1 -4,4 h-356.0 z" fill="#d95926"/>
<text x="668.0" y="90.0" font-size="13.5" font-weight="600" fill="#f0f6fc">13</text>
<text x="288" y="128.0" font-size="13.5" text-anchor="end" fill="#c3c2b7">Ignored files like .env or local data</text>
<path d="M300,112 h245.23076923076923 a4,4 0 0 1 4,4 v14 a4,4 0 0 1 -4,4 h-245.23076923076923 z" fill="#d95926"/>
<text x="557.2307692307693" y="128.0" font-size="13.5" font-weight="600" fill="#f0f6fc">9</text>
<text x="288" y="166.0" font-size="13.5" text-anchor="end" fill="#c3c2b7">Unpushed commits</text>
<path d="M300,150 h23.692307692307693 a4,4 0 0 1 4,4 v14 a4,4 0 0 1 -4,4 h-23.692307692307693 z" fill="#d95926"/>
<text x="335.6923076923077" y="166.0" font-size="13.5" font-weight="600" fill="#f0f6fc">1</text>
<text x="288" y="204.0" font-size="13.5" text-anchor="end" fill="#c3c2b7">Used in the last 48 hours</text>
<path d="M300,188 h23.692307692307693 a4,4 0 0 1 4,4 v14 a4,4 0 0 1 -4,4 h-23.692307692307693 z" fill="#d95926"/>
<text x="335.6923076923077" y="204.0" font-size="13.5" font-weight="600" fill="#f0f6fc">1</text>
</svg>